#!OML:ASF F:\VICON\USERDATA\INSTALL\Justin_Nancy\Justin_Nancy.ASF
:FULLY-SPECIFIED
:DEGREES
158
root 1.23299 17.0746 3.2473 -4.71296 -34.8235 11.1862
lowerback 7.61536 -1.92992 -8.30775
upperback 0.000657389 -3.26144 1.1565
thorax -3.74743 -1.45847 6.22622
lowerneck -15.7938 -3.39111 -10.002
upperneck 20.5789 -3.26461 4.53831
head 9.3436 -1.84192 2.80826
rclavicle -7.25564e-014 -3.02153e-014
rhumerus -41.7072 -22.7945 -70.2369
rradius 26.7184
rwrist 11.7767
rhand -14.0557 10.3986
rfingers 7.12502
rthumb 12.0754 -19.233
lclavicle -7.25564e-014 -3.02153e-014
lhumerus -22.8884 5.64747 83.3578
lradius 32.8735
lwrist -5.47113
lhand -16.2741 27.9206
lfingers 7.12502
lthumb 9.93575 57.6661
rfemur -30.4867 0.210128 12.2499
rtibia 9.09382
rfoot -5.03252 -12.7043
rtoes -9.69581
lfemur 13.1365 -1.83632 -29.7862
ltibia 16.3114
lfoot -15.6102 -5.51459
ltoes -14.7476
159
root 1.07413 17.0669 3.4538 -4.99492 -34.8418 11.2506
lowerback 7.47591 -1.90399 -8.19789
upperback 0.148418 -3.20305 1.06546
thorax -3.53418 -1.44762 6.04998
lowerneck -15.8413 -3.4233 -10.0073
upperneck 20.6401 -3.30926 4.5588
head 9.37774 -1.86152 2.81076
rclavicle -9.36276e-014 3.18055e-015
rhumerus -41.6243 -22.6089 -70.5035
rradius 26.6474
rwrist 11.7049
rhand -14.475 10.6903
rfingers 7.12502
rthumb 11.6711 -18.9646
lclavicle -9.36276e-014 3.18055e-015
lhumerus -22.7843 6.01818 83.2497
lradius 33.1395
lwrist -5.65872
lhand -16.0914 27.8289
lfingers 7.12502
lthumb 10.112 57.5659
rfemur -30.5862 -0.149533 12.4856
rtibia 10.7969
rfoot -4.94285 -11.3692
rtoes -7.27715
lfemur 14.0821 -2.10535 -29.9036
ltibia 16.7688
lfoot -13.5198 -6.45607
ltoes -8.98284
160
root 0.907528 17.058 3.65721 -4.94176 -35.0724 10.6
lowerback 7.51616 -1.72739 -7.63756
upperback 0.289664 -2.91283 1.20236
thorax -3.47512 -1.31911 5.85022
lowerneck -15.9747 -3.60889 -10.1468
upperneck 20.8184 -3.53043 4.5957
head 9.4871 -1.97314 2.81813
rclavicle -5.51627e-014 3.33958e-014
rhumerus -41.588 -21.8568 -71.0911
rradius 26.9477
rwrist 10.1782
rhand -15.1846 9.89621
rfingers 7.12502
rthumb 10.9867 -19.7963
lclavicle -5.51627e-014 3.33958e-014
lhumerus -22.5075 5.83422 83.3655
lradius 33.0433
lwrist -5.8498
lhand -16.3256 27.8512
lfingers 7.12502
lthumb 9.88606 57.5991
rfemur -30.8117 -0.978827 13.8517
rtibia 13.1139
rfoot -4.58749 -9.17862
rtoes -6.60021
lfemur 15.003 -2.28564 -29.3519
ltibia 17.3509
lfoot -13.488 -6.37483
ltoes -19.7131
161
root 0.740294 17.0481 3.8566 -4.99506 -35.0891 10.3887
lowerback 7.61682 -1.69372 -7.64284
upperback 0.241501 -2.87207 1.36033
thorax -3.58012 -1.29138 6.02321
lowerneck -15.9499 -3.64574 -10.2865
upperneck 20.9991 -3.54009 4.53408
head 9.54959 -2.00024 2.82013
rclavicle -4.80065e-014 4.92986e-014
rhumerus -41.7037 -21.4889 -71.2355
rradius 27.105
rwrist 9.37975
rhand -15.6436 9.00518
rfingers 7.12502
rthumb 10.5439 -20.7103
lclavicle -4.80065e-014 4.92986e-014
lhumerus -22.6015 5.83787 83.4925
lradius 33.0251
lwrist -5.6536
lhand -16.6665 27.6251
lfingers 7.12502
lthumb 9.55712 57.3884
rfemur -30.9685 -1.64926 14.6155
rtibia 15.3555
rfoot -4.45545 -7.42267
rtoes -7.89077
lfemur 15.4877 -2.67336 -29.1781
ltibia 18.3311
lfoot -13.1316 -6.56062
ltoes -25.1819
162
root 0.564024 17.0359 4.06296 -5.3241 -34.991 10.6774
lowerback 7.41511 -1.80611 -8.02158
upperback 0.347136 -3.03441 1.35617
thorax -3.31138 -1.38241 6.23395
lowerneck -16.0552 -3.49785 -10.3617
upperneck 21.0746 -3.29088 4.48241
head 9.57611 -1.89682 2.84778
rclavicle -3.98563e-014 -1.11319e-014
rhumerus -41.7128 -22.1225 -70.634
rradius 26.7251
rwrist 11.3952
rhand -14.9346 10.5719
rfingers 7.12502
rthumb 11.2279 -19.1077
lclavicle -3.98563e-014 -1.11319e-014
lhumerus -22.6656 6.64262 83.391
lradius 33.2808
lwrist -5.21831
lhand -16.5782 28.8112
lfingers 7.12502
lthumb 9.64234 58.5705
rfemur -30.8144 -1.88104 14.6328
rtibia 17.3511
rfoot -4.56774 -6.36394
rtoes -8.81833
lfemur 15.7034 -3.29146 -29.5186
ltibia 19.7527
lfoot -11.544 -7.12695
ltoes -24.1403
163
root 0.38588 17.0223 4.26793 -5.49009 -34.7004 10.5476
lowerback 7.30259 -1.88371 -7.95636
upperback 0.503231 -3.11871 1.32875
thorax -3.07538 -1.44208 6.16378
lowerneck -15.9791 -3.44583 -10.33
upperneck 20.8894 -3.21864 4.43708
head 9.48961 -1.86222 2.83477
rclavicle -1.80894e-014 -3.18055e-015
rhumerus -41.6116 -22.0241 -70.8751
rradius 26.7001
rwrist 11.3414
rhand -14.9784 10.8793
rfingers 7.12502
rthumb 11.1856 -18.8026
lclavicle -1.80894e-014 -3.18055e-015
lhumerus -22.7164 7.16436 83.2376
lradius 33.3232
lwrist -5.55859
lhand -16.7027 28.3428
lfingers 7.12502
lthumb 9.52223 58.1076
rfemur -30.4118 -1.8674 14.8545
rtibia 19.402
rfoot -5.02402 -5.84462
rtoes -7.5008
lfemur 15.8735 -3.80113 -29.3269
ltibia 21.1521
lfoot -9.16103 -8.20596
ltoes -21.0193
164
root 0.201788 17.0163 4.46546 -5.402 -34.1399 10.0872
lowerback 7.35599 -1.96415 -7.7797
upperback 0.44865 -3.21377 1.43064
thorax -3.15057 -1.48596 6.18377
lowerneck -15.6397 -3.53086 -10.1816
upperneck 20.8047 -3.34241 4.12918
head 9.40041 -1.94455 2.68728
rclavicle -4.94974e-014 -3.49861e-014
rhumerus -41.8602 -22.1819 -70.7368
rradius 26.5929
rwrist 11.2358
rhand -14.7504 11.2075
rfingers 7.12502
rthumb 11.4055 -18.4623
lclavicle -4.94974e-014 -3.49861e-014
lhumerus -23.0765 7.48578 83.2336
lradius 33.4009
lwrist -5.69874
lhand -16.7916 28.0028
lfingers 7.12502
lthumb 9.43639 57.7715
rfemur -29.8538 -1.179 15.084
rtibia 21.1284
rfoot -5.13019 -6.401
rtoes -5.08899
lfemur 15.8829 -4.04191 -28.581
ltibia 22.5917
lfoot -6.8325 -9.66508
ltoes -22.1458
165
root 0.00755999 17.0268 4.66699 -5.46794 -33.5016 10.0832
lowerback 7.30957 -2.1374 -8.04794
upperback 0.288135 -3.46473 1.52279
thorax -3.23097 -1.59734 6.45643
lowerneck -15.4216 -3.58575 -10.3393
upperneck 21.0277 -3.36147 3.91197
head 9.44134 -1.99872 2.63808
rclavicle 3.4191e-014 -1.74931e-014
rhumerus -42.1762 -21.9723 -70.6414
rradius 26.5871
rwrist 10.8412
rhand -15.0718 10.8086
rfingers 7.12502
rthumb 11.0955 -18.8781
lclavicle 3.4191e-014 -1.74931e-014
lhumerus -23.6005 7.67399 83.2832
lradius 33.4174
lwrist -5.58171
lhand -16.9898 27.9415
lfingers 7.12502
lthumb 9.24519 57.7188
rfemur -29.3896 -0.311501 14.799
rtibia 22.3202
rfoot -3.86174 -7.00296
rtoes -4.03766
lfemur 15.5918 -4.16876 -28.1619
ltibia 24.3247
lfoot -4.03823 -11.1531
ltoes -22.9264
166
root -0.191033 17.0719 4.87109 -5.56423 -32.9362 10.1778
lowerback 7.28874 -2.31143 -8.44494
upperback 0.122165 -3.73069 1.60378
thorax -3.31888 -1.71303 6.79317
lowerneck -15.3271 -3.43635 -10.3852
upperneck 21.2987 -3.13344 3.79615
head 9.50064 -1.91796 2.6381
rclavicle 2.08724e-014 1.74931e-014
rhumerus -42.4575 -21.8598 -70.4769
rradius 26.5658
rwrist 10.7335
rhand -15.3445 10.4581
rfingers 7.12502
rthumb 10.8325 -19.2425
lclavicle 2.08724e-014 1.74931e-014
lhumerus -24.041 8.0408 83.2949
lradius 33.2564
lwrist -5.49435
lhand -17.5587 27.8542
lfingers 7.12502
lthumb 8.69623 57.6551
rfemur -29.1242 0.146973 14.4579
rtibia 23.1088
rfoot -1.96461 -7.05473
rtoes -9.11814
lfemur 14.8071 -4.56522 -27.9391
ltibia 26.4413
lfoot -0.321495 -12.5421
ltoes -23.7689
